<svg xmlns="http://www.w3.org/2000/svg" width="256" height="256" viewBox="0 0 100 100"><rect width="100" height="100" rx="50" fill="#209cee"></rect><path fill="#fff" d="M39.47 62.38L38.57 79.21Q38.57 84.52 28.22 84.52L28.22 84.52Q25.97 84.52 25.57 82.22Q25.16 79.93 25.16 75.79L25.16 75.79Q25.16 67.06 28.67 54.19L28.67 54.19Q34.52 32.95 41.18 29.17L41.18 29.17Q42.08 28.63 43.16 28.63Q44.24 28.63 44.24 32.14Q44.24 35.65 43.88 38.35L43.88 38.35Q43.16 43.75 41.31 52.30Q39.47 60.85 39.47 62.38L39.47 62.38ZM44.69 55.00L44.69 55.00Q44.69 53.83 46.00 53.47Q47.30 53.11 49.28 52.79Q51.26 52.48 53.60 51.85Q55.94 51.22 57.92 49.51L57.92 49.51Q62.51 45.55 62.51 36.28L62.51 36.28Q62.51 30.34 58.51 27.19Q54.50 24.04 46.98 24.04Q39.47 24.04 32.90 27.19L32.90 27.19Q30.47 28.36 28.54 29.35Q26.60 30.34 24.98 30.34Q23.36 30.34 23.36 29.35L23.36 29.35Q23.36 27.82 26.33 24.31L26.33 24.31Q29.30 21.07 35.73 18.28Q42.17 15.49 49.28 15.49L49.28 15.49Q62.69 15.40 70.16 21.79L70.16 21.79Q76.64 27.37 76.64 36.23Q76.64 45.10 70.25 52.07Q63.86 59.05 54.27 59.05Q44.69 59.05 44.69 55.00Z"></path></svg>